<svg xmlns="http://www.w3.org/2000/svg" viewBox="0 0 30.96 30.96"><g id="Layer_2" data-name="Layer 2"><g id="Layer_1-2" data-name="Layer 1"><path d="M15.48.36A15.12,15.12,0,1,1,.36,15.48,15.12,15.12,0,0,1,15.48.36Zm0,26.64A9.41,9.41,0,0,1,6.1,17.94H24.86A9.41,9.41,0,0,1,15.48,27ZM10.2,8a2.64,2.64,0,1,0,2.64,2.64A2.64,2.64,0,0,0,10.2,8ZM20.76,8a2.64,2.64,0,1,0,2.64,2.64A2.64,2.64,0,0,0,20.76,8Z" fill="yellow" stroke="#faf028" stroke-linecap="round" stroke-linejoin="round" stroke-width="0.72" fill-rule="evenodd"/></g></g></svg>